<svg width="184" height="66" viewBox="0 0 184 66" fill="none" xmlns="http://www.w3.org/2000/svg">
<rect x="1.09524" y="1.09524" width="181.81" height="63.5238" rx="5.47619" fill="black" stroke="#00FF4D" stroke-width="2.19048"/>
<path d="M89.9534 53.762V47.0631L83.4004 34.4479H90.2718L93.0044 39.9397C93.1017 40.1519 93.1857 40.3642 93.2564 40.5764C93.3272 40.7798 93.3935 40.9876 93.4554 41.1999H93.535C93.5969 40.9876 93.6632 40.7798 93.734 40.5764C93.8047 40.373 93.8932 40.1608 93.9993 39.9397L96.7717 34.4479H102.622L96.2942 46.758V53.762H89.9534Z" fill="white"/>
<path d="M68.7217 53.762V34.4479H77.4104C79.7008 34.4479 81.527 35.0183 82.8889 36.1591C84.2508 37.291 84.9317 38.9094 84.9317 41.0141C84.9317 43.1631 84.2243 44.8345 82.8093 46.0284C81.4032 47.2223 79.5903 47.8192 77.3706 47.8192H74.9961V53.762H68.7217ZM74.9961 43.6274H76.5481C77.2822 43.6274 77.8083 43.4284 78.1267 43.0305C78.4539 42.6237 78.6219 42.0223 78.6308 41.2264C78.6308 40.4305 78.4672 39.8335 78.14 39.4356C77.8128 39.0376 77.2822 38.8387 76.5481 38.8387H74.9961V43.6274ZM78.8032 53.762L75.0359 45.1794L81.2705 44.4896L85.7542 53.762H78.8032Z" fill="white"/>
<path d="M48.8296 44.6753V43.5345C48.8296 40.3243 49.683 37.9498 51.3898 36.411C53.0966 34.8723 55.2942 34.1029 57.9826 34.1029C60.6533 34.1029 62.8509 34.8723 64.5754 36.411C66.3087 37.9498 67.1754 40.3243 67.1754 43.5345V44.6753C67.1754 47.8854 66.3087 50.2599 64.5754 51.7987C62.8509 53.3374 60.6533 54.1068 57.9826 54.1068C55.2942 54.1068 53.0966 53.3374 51.3898 51.7987C49.683 50.2599 48.8296 47.8854 48.8296 44.6753ZM55.3561 46.0283C55.3561 47.4167 55.586 48.3851 56.0459 48.9334C56.5057 49.4728 57.1513 49.7426 57.9826 49.7426C58.8139 49.7426 59.4683 49.4728 59.9458 48.9334C60.4234 48.3851 60.6621 47.4167 60.6621 46.0283V42.2079C60.6621 40.8195 60.4234 39.86 59.9458 39.3294C59.4683 38.7899 58.8139 38.5202 57.9826 38.5202C57.1513 38.5202 56.5057 38.7899 56.0459 39.3294C55.586 39.86 55.3561 40.8195 55.3561 42.2079V46.0283Z" fill="white"/>
<path d="M32.1743 39.157V34.4479H48.6497V39.157H43.5824V53.762H37.2416V39.157H32.1743Z" fill="white"/>
<path d="M15.8638 48.2303V47.4875H21.9923V47.9252C21.9923 48.5708 22.178 49.0528 22.5494 49.3711C22.9209 49.6895 23.4338 49.8487 24.0882 49.8487C24.7161 49.8487 25.2025 49.7293 25.5474 49.4905C25.9011 49.2518 26.078 48.9201 26.078 48.4956C26.078 47.965 25.9099 47.5759 25.5739 47.3283C25.2467 47.0718 24.2518 46.7402 22.5892 46.3334C20.5994 45.8293 19.0076 45.0953 17.8138 44.1314C16.6287 43.1675 16.0362 41.8409 16.0362 40.1518C16.0362 38.2151 16.7658 36.725 18.225 35.6815C19.6841 34.6291 21.5943 34.1029 23.9555 34.1029C26.3079 34.1029 28.2137 34.607 29.6728 35.6151C31.132 36.6233 31.8616 38.0338 31.8616 39.8467V40.51H25.8657V40.1386C25.8657 39.6168 25.711 39.2056 25.4014 38.9049C25.0919 38.5954 24.6321 38.4406 24.0219 38.4406C23.4117 38.4406 22.9651 38.5467 22.6821 38.759C22.4079 38.9624 22.2709 39.241 22.2709 39.5947C22.2709 40.0015 22.4389 40.2889 22.7749 40.4569C23.1198 40.6161 24.1501 40.9168 25.8657 41.359C27.7494 41.8454 29.2881 42.5749 30.482 43.5477C31.6759 44.5117 32.2728 45.9399 32.2728 47.8324C32.2728 49.9194 31.5167 51.4891 30.0045 52.5415C28.5011 53.585 26.5467 54.1068 24.1412 54.1068C21.7624 54.1068 19.7858 53.6248 18.2117 52.6609C16.6464 51.697 15.8638 50.2201 15.8638 48.2303Z" fill="white"/>
<path d="M125.996 26.8171C125.996 25.9239 126.297 25.1678 126.898 24.5488C127.499 23.9209 128.357 23.6069 129.472 23.6069C130.604 23.6069 131.466 23.9209 132.058 24.5488C132.66 25.1678 132.96 25.9239 132.96 26.8171C132.96 27.7191 132.66 28.4841 132.058 29.112C131.466 29.731 130.604 30.0406 129.472 30.0406C128.357 30.0406 127.499 29.7266 126.898 29.0987C126.297 28.4708 125.996 27.7103 125.996 26.8171Z" fill="white"/>
<path d="M105.189 29.762L112.193 10.4081H119.131L126.228 29.762H119.648L115.655 17.9692C115.549 17.6509 115.469 17.3546 115.416 17.0805C115.372 16.8063 115.332 16.572 115.297 16.3774H115.217C115.191 16.572 115.151 16.8063 115.098 17.0805C115.045 17.3546 114.97 17.6509 114.873 17.9692L110.999 29.762H105.189ZM110.177 26.6977L111.211 22.4661H119.675L120.762 26.6977H110.177Z" fill="white"/>
<path d="M88.7593 29.762V10.4479H95.2858L99.3449 19.4284C99.4687 19.7114 99.5704 19.9811 99.65 20.2376C99.7296 20.494 99.8092 20.7815 99.8888 21.0998H99.9816C99.9639 20.7815 99.9551 20.5029 99.9551 20.2641C99.9551 20.0253 99.9551 19.7424 99.9551 19.4151V10.4479H105.129V29.762H98.5225L94.4766 20.8876C94.3616 20.6134 94.2643 20.3437 94.1847 20.0784C94.1051 19.8131 94.0344 19.5257 93.9725 19.2162H93.8664C93.8929 19.5345 93.9062 19.8219 93.9062 20.0784C93.915 20.3349 93.9194 20.6223 93.9194 20.9406V29.762H88.7593Z" fill="white"/>
<path d="M70.1807 29.762V10.4479H77.9939C80.6823 10.4479 82.8887 11.2261 84.6132 12.7825C86.3465 14.339 87.2132 16.5808 87.2132 19.508V20.6621C87.2132 23.5804 86.3421 25.8267 84.5999 27.4008C82.8666 28.9749 80.6646 29.762 77.9939 29.762H70.1807ZM76.349 25.4375H77.6224C78.551 25.4375 79.316 25.1103 79.9173 24.4559C80.5187 23.7927 80.8194 22.7005 80.8194 21.1794V19.057C80.8194 17.5182 80.5187 16.4393 79.9173 15.8203C79.3248 15.1924 78.5598 14.8784 77.6224 14.8784H76.349V25.4375Z" fill="white"/>
<path d="M50.2886 20.6753V19.5345C50.2886 16.3243 51.142 13.9498 52.8488 12.411C54.5555 10.8723 56.7531 10.1029 59.4416 10.1029C62.1123 10.1029 64.3099 10.8723 66.0344 12.411C67.7677 13.9498 68.6343 16.3243 68.6343 19.5345V20.6753C68.6343 23.8854 67.7677 26.2599 66.0344 27.7987C64.3099 29.3374 62.1123 30.1068 59.4416 30.1068C56.7531 30.1068 54.5555 29.3374 52.8488 27.7987C51.142 26.2599 50.2886 23.8854 50.2886 20.6753ZM56.815 22.0283C56.815 23.4167 57.045 24.3851 57.5048 24.9334C57.9647 25.4728 58.6103 25.7426 59.4416 25.7426C60.2728 25.7426 60.9273 25.4728 61.4048 24.9334C61.8824 24.3851 62.1211 23.4167 62.1211 22.0283V18.2079C62.1211 16.8195 61.8824 15.86 61.4048 15.3294C60.9273 14.7899 60.2728 14.5202 59.4416 14.5202C58.6103 14.5202 57.9647 14.7899 57.5048 15.3294C57.045 15.86 56.815 16.8195 56.815 18.2079V22.0283Z" fill="white"/>
<path d="M33.4478 29.762V10.4479H42.1365C44.4269 10.4479 46.2531 11.0183 47.615 12.1591C48.9769 13.291 49.6578 14.9094 49.6578 17.0141C49.6578 19.1631 48.9503 20.8345 47.5354 22.0284C46.1293 23.2223 44.3164 23.8192 42.0967 23.8192H39.7222V29.762H33.4478ZM39.7222 19.6274H41.2742C42.0082 19.6274 42.5344 19.4284 42.8528 19.0305C43.18 18.6237 43.348 18.0223 43.3569 17.2264C43.3569 16.4305 43.1932 15.8335 42.866 15.4356C42.5388 15.0376 42.0082 14.8387 41.2742 14.8387H39.7222V19.6274ZM43.5293 29.762L39.762 21.1794L45.9966 20.4896L50.4803 29.762H43.5293Z" fill="white"/>
<path d="M15.8638 24.2303V23.4875H21.9923V23.9252C21.9923 24.5708 22.178 25.0528 22.5494 25.3711C22.9209 25.6895 23.4338 25.8487 24.0882 25.8487C24.7161 25.8487 25.2025 25.7293 25.5474 25.4905C25.9011 25.2518 26.078 24.9201 26.078 24.4956C26.078 23.965 25.9099 23.5759 25.5739 23.3283C25.2467 23.0718 24.2518 22.7402 22.5892 22.3334C20.5994 21.8293 19.0076 21.0953 17.8138 20.1314C16.6287 19.1675 16.0362 17.8409 16.0362 16.1518C16.0362 14.2151 16.7658 12.725 18.225 11.6815C19.6841 10.6291 21.5943 10.1029 23.9555 10.1029C26.3079 10.1029 28.2137 10.607 29.6728 11.6151C31.132 12.6233 31.8616 14.0338 31.8616 15.8467V16.51H25.8657V16.1386C25.8657 15.6168 25.711 15.2056 25.4014 14.9049C25.0919 14.5954 24.6321 14.4406 24.0219 14.4406C23.4117 14.4406 22.9651 14.5467 22.6821 14.759C22.4079 14.9624 22.2709 15.241 22.2709 15.5947C22.2709 16.0015 22.4389 16.2889 22.7749 16.4569C23.1198 16.6161 24.1501 16.9168 25.8657 17.359C27.7494 17.8454 29.2881 18.5749 30.482 19.5477C31.6759 20.5117 32.2728 21.9399 32.2728 23.8324C32.2728 25.9194 31.5167 27.4891 30.0045 28.5415C28.5011 29.585 26.5467 30.1068 24.1412 30.1068C21.7624 30.1068 19.7858 29.6248 18.2117 28.6609C16.6464 27.697 15.8638 26.2201 15.8638 24.2303Z" fill="white"/>
</svg>
