<svg width="91" height="111" viewBox="0 0 91 111" fill="none" xmlns="http://www.w3.org/2000/svg">
<rect x="90.6372" y="104.511" width="10.1736" height="98.9613" rx="5.0868" transform="rotate(-180 90.6372 104.511)" fill="#FEB161"/>
<rect x="90.6372" y="104.511" width="10.1736" height="98.9613" rx="5.0868" transform="rotate(-180 90.6372 104.511)" fill="#FEB161"/>
<rect x="90.6372" y="104.511" width="10.1736" height="98.9613" rx="5.0868" transform="rotate(-180 90.6372 104.511)" fill="#FEB161"/>
<rect x="90.6372" y="104.511" width="10.1736" height="98.9613" rx="5.0868" transform="rotate(-180 90.6372 104.511)" fill="#FEB161"/>
<rect x="90.6372" y="104.511" width="10.1736" height="98.9613" rx="5.0868" transform="rotate(-180 90.6372 104.511)" fill="#FEB161"/>
<path d="M75.8683 51.4007C78.2128 53.2522 78.2128 56.8076 75.8683 58.6591L27.6063 96.772C24.5739 99.1667 20.116 97.0068 20.116 93.1428L20.116 16.9169C20.116 13.0529 24.5739 10.893 27.6063 13.2878L75.8683 51.4007Z" fill="#FEB161"/>
</svg>
