<svg width="118" height="44" viewBox="0 0 118 44" fill="none" xmlns="http://www.w3.org/2000/svg">
<path d="M74.0896 43.6591V36.9602L67.5366 24.345H74.408L77.1406 29.8368C77.2379 30.049 77.3219 30.2612 77.3927 30.4735C77.4634 30.6769 77.5297 30.8847 77.5916 31.097H77.6712C77.7331 30.8847 77.7995 30.6769 77.8702 30.4735C77.9409 30.2701 78.0294 30.0578 78.1355 29.8368L80.9079 24.345H86.7579L80.4304 36.6551V43.6591H74.0896Z" fill="white"/>
<path d="M52.8579 43.6591V24.345H61.5466C63.8371 24.345 65.6632 24.9154 67.0251 26.0562C68.387 27.1881 69.068 28.8065 69.068 30.9112C69.068 33.0602 68.3605 34.7316 66.9455 35.9255C65.5394 37.1193 63.7265 37.7163 61.5068 37.7163H59.1323V43.6591H52.8579ZM59.1323 33.5245H60.6844C61.4184 33.5245 61.9446 33.3255 62.2629 32.9275C62.5901 32.5208 62.7582 31.9194 62.767 31.1235C62.767 30.3276 62.6034 29.7306 62.2762 29.3327C61.949 28.9347 61.4184 28.7358 60.6844 28.7358H59.1323V33.5245ZM62.9395 43.6591L59.1721 35.0765L65.4068 34.3867L69.8904 43.6591H62.9395Z" fill="white"/>
<path d="M32.9658 34.5724V33.4316C32.9658 30.2214 33.8192 27.8469 35.526 26.3081C37.2328 24.7694 39.4304 24 42.1188 24C44.7895 24 46.9871 24.7694 48.7116 26.3081C50.4449 27.8469 51.3116 30.2214 51.3116 33.4316V34.5724C51.3116 37.7825 50.4449 40.157 48.7116 41.6958C46.9871 43.2345 44.7895 44.0039 42.1188 44.0039C39.4304 44.0039 37.2328 43.2345 35.526 41.6958C33.8192 40.157 32.9658 37.7825 32.9658 34.5724ZM39.4923 35.9254C39.4923 37.3138 39.7222 38.2822 40.1821 38.8305C40.6419 39.3699 41.2875 39.6397 42.1188 39.6397C42.9501 39.6397 43.6045 39.3699 44.0821 38.8305C44.5596 38.2822 44.7984 37.3138 44.7984 35.9254V32.105C44.7984 30.7166 44.5596 29.7571 44.0821 29.2265C43.6045 28.687 42.9501 28.4173 42.1188 28.4173C41.2875 28.4173 40.6419 28.687 40.1821 29.2265C39.7222 29.7571 39.4923 30.7166 39.4923 32.105V35.9254Z" fill="white"/>
<path d="M16.3105 29.0541V24.345H32.7859V29.0541H27.7186V43.6591H21.3779V29.0541H16.3105Z" fill="white"/>
<path d="M0 38.1274V37.3846H6.12852V37.8223C6.12852 38.4679 6.31423 38.9499 6.68566 39.2682C7.05708 39.5866 7.57 39.7458 8.22442 39.7458C8.85231 39.7458 9.33869 39.6264 9.68359 39.3876C10.0373 39.1488 10.2142 38.8172 10.2142 38.3927C10.2142 37.8621 10.0462 37.473 9.71012 37.2254C9.38291 36.9689 8.38802 36.6373 6.72545 36.2305C4.73567 35.7264 3.14385 34.9924 1.94998 34.0285C0.764959 33.0645 0.172448 31.738 0.172448 30.0489C0.172448 28.1122 0.902033 26.6221 2.3612 25.5786C3.82038 24.5262 5.73056 24 8.09177 24C10.4441 24 12.3499 24.5041 13.8091 25.5122C15.2682 26.5204 15.9978 27.9309 15.9978 29.7438V30.4071H10.002V30.0357C10.002 29.5139 9.84719 29.1027 9.53767 28.802C9.22815 28.4925 8.76829 28.3377 8.15809 28.3377C7.54789 28.3377 7.1013 28.4438 6.81831 28.6561C6.54416 28.8595 6.40709 29.1381 6.40709 29.4918C6.40709 29.8986 6.57511 30.186 6.91116 30.354C7.25606 30.5132 8.28632 30.8139 10.002 31.2561C11.8856 31.7424 13.4244 32.472 14.6182 33.4448C15.8121 34.4088 16.409 35.837 16.409 37.7295C16.409 39.8165 15.6529 41.3862 14.1407 42.4386C12.6373 43.4821 10.6829 44.0039 8.27748 44.0039C5.89859 44.0039 3.92207 43.5219 2.34794 42.558C0.782646 41.5941 0 40.1172 0 38.1274Z" fill="white"/>
<path d="M110.132 16.7142C110.132 15.821 110.433 15.0649 111.034 14.4459C111.636 13.818 112.494 13.504 113.608 13.504C114.74 13.504 115.602 13.818 116.195 14.4459C116.796 15.0649 117.097 15.821 117.097 16.7142C117.097 17.6162 116.796 18.3812 116.195 19.0091C115.602 19.6281 114.74 19.9376 113.608 19.9376C112.494 19.9376 111.636 19.6237 111.034 18.9958C110.433 18.3679 110.132 17.6074 110.132 16.7142Z" fill="white"/>
<path d="M89.3252 19.6591L96.3292 0.305176H103.267L110.364 19.6591H103.784L99.7914 7.86633C99.6853 7.54797 99.6057 7.25171 99.5527 6.97757C99.5084 6.70342 99.4686 6.46907 99.4333 6.27451H99.3537C99.3271 6.46907 99.2874 6.70342 99.2343 6.97757C99.1812 7.25171 99.1061 7.54797 99.0088 7.86633L95.1353 19.6591H89.3252ZM94.3129 16.5948L95.3476 12.3632H103.811L104.899 16.5948H94.3129Z" fill="white"/>
<path d="M72.8955 19.6591V0.344971H79.422L83.4811 9.32551C83.6049 9.6085 83.7066 9.87822 83.7862 10.1347C83.8658 10.3911 83.9454 10.6786 84.025 10.9969H84.1179C84.1002 10.6786 84.0913 10.4 84.0913 10.1612C84.0913 9.92244 84.0913 9.63945 84.0913 9.31224V0.344971H89.2648V19.6591H82.6587L78.6128 10.7847C78.4978 10.5105 78.4006 10.2408 78.321 9.9755C78.2414 9.7102 78.1706 9.42278 78.1087 9.11326H78.0026C78.0291 9.43163 78.0424 9.71904 78.0424 9.9755C78.0512 10.232 78.0557 10.5194 78.0557 10.8377V19.6591H72.8955Z" fill="white"/>
<path d="M54.3169 19.6591V0.344971H62.1301C64.8185 0.344971 67.025 1.12319 68.7494 2.67964C70.4827 4.23609 71.3494 6.47791 71.3494 9.4051V10.5592C71.3494 13.4775 70.4783 15.7238 68.7362 17.2979C67.0028 18.872 64.8008 19.6591 62.1301 19.6591H54.3169ZM60.4852 15.3346H61.7587C62.6872 15.3346 63.4522 15.0074 64.0535 14.353C64.6549 13.6898 64.9556 12.5976 64.9556 11.0765V8.95408C64.9556 7.41532 64.6549 6.33642 64.0535 5.71737C63.461 5.08949 62.6961 4.77554 61.7587 4.77554H60.4852V15.3346Z" fill="white"/>
<path d="M34.4248 10.5724V9.43155C34.4248 6.22137 35.2782 3.84691 36.985 2.30814C38.6918 0.769381 40.8894 0 43.5778 0C46.2485 0 48.4461 0.769381 50.1706 2.30814C51.9039 3.84691 52.7706 6.22137 52.7706 9.43155V10.5724C52.7706 13.7825 51.9039 16.157 50.1706 17.6958C48.4461 19.2345 46.2485 20.0039 43.5778 20.0039C40.8894 20.0039 38.6918 19.2345 36.985 17.6958C35.2782 16.157 34.4248 13.7825 34.4248 10.5724ZM40.9513 11.9254C40.9513 13.3138 41.1812 14.2822 41.6411 14.8305C42.1009 15.3699 42.7465 15.6397 43.5778 15.6397C44.4091 15.6397 45.0635 15.3699 45.541 14.8305C46.0186 14.2822 46.2574 13.3138 46.2574 11.9254V8.10503C46.2574 6.71661 46.0186 5.75709 45.541 5.22649C45.0635 4.68703 44.4091 4.41731 43.5778 4.41731C42.7465 4.41731 42.1009 4.68703 41.6411 5.22649C41.1812 5.75709 40.9513 6.71661 40.9513 8.10503V11.9254Z" fill="white"/>
<path d="M17.584 19.6591V0.344971H26.2727C28.5631 0.344971 30.3893 0.915374 31.7512 2.05618C33.1131 3.18814 33.794 4.8065 33.794 6.91124C33.794 9.0602 33.0866 10.7316 31.6716 11.9255C30.2655 13.1194 28.4526 13.7163 26.2329 13.7163H23.8584V19.6591H17.584ZM23.8584 9.52448H25.4104C26.1445 9.52448 26.6706 9.32551 26.989 8.92755C27.3162 8.52075 27.4842 7.91939 27.4931 7.12348C27.4931 6.32757 27.3295 5.73064 27.0023 5.33268C26.6751 4.93473 26.1445 4.73575 25.4104 4.73575H23.8584V9.52448ZM27.6655 19.6591L23.8982 11.0765L30.1329 10.3867L34.6165 19.6591H27.6655Z" fill="white"/>
<path d="M0 14.1274V13.3846H6.12852V13.8223C6.12852 14.4679 6.31423 14.9499 6.68566 15.2682C7.05708 15.5866 7.57 15.7458 8.22442 15.7458C8.85231 15.7458 9.33869 15.6264 9.68359 15.3876C10.0373 15.1488 10.2142 14.8172 10.2142 14.3927C10.2142 13.8621 10.0462 13.473 9.71012 13.2254C9.38291 12.9689 8.38802 12.6373 6.72545 12.2305C4.73567 11.7264 3.14385 10.9924 1.94998 10.0285C0.764959 9.06455 0.172448 7.73803 0.172448 6.04893C0.172448 4.11221 0.902033 2.62209 2.3612 1.57856C3.82038 0.526186 5.73056 0 8.09177 0C10.4441 0 12.3499 0.504077 13.8091 1.51223C15.2682 2.52039 15.9978 3.93092 15.9978 5.74383V6.40709H10.002V6.03566C10.002 5.5139 9.84719 5.10268 9.53767 4.802C9.22815 4.49248 8.76829 4.33772 8.15809 4.33772C7.54789 4.33772 7.1013 4.44384 6.81831 4.65608C6.54416 4.85948 6.40709 5.13805 6.40709 5.49179C6.40709 5.89859 6.57511 6.186 6.91116 6.35403C7.25606 6.51321 8.28632 6.81389 10.002 7.25606C11.8856 7.74245 13.4244 8.47204 14.6182 9.44482C15.8121 10.4088 16.409 11.837 16.409 13.7295C16.409 15.8165 15.6529 17.3862 14.1407 18.4386C12.6373 19.4821 10.6829 20.0039 8.27748 20.0039C5.89859 20.0039 3.92207 19.5219 2.34794 18.558C0.782646 17.5941 0 16.1172 0 14.1274Z" fill="white"/>
</svg>
